inDegrees=yes
name=ik_lifting_orientations
DataType=double
version=3
OpenSimVersion=4.5-2024-01-10-34fd6af
endheader
time	pelvis_tilt	pelvis_list	pelvis_rotation	pelvis_tx	pelvis_ty	pelvis_tz	hip_flexion_r	hip_adduction_r	hip_rotation_r	knee_angle_r	knee_angle_r_beta	ankle_angle_r	subtalar_angle_r	mtp_angle_r	hip_flexion_l	hip_adduction_l	hip_rotation_l	knee_angle_l	knee_angle_l_beta	ankle_angle_l	subtalar_angle_l	mtp_angle_l	lumbar_extension	lumbar_bending	lumbar_rotation	arm_flex_r	arm_add_r	arm_rot_r	elbow_flex_r	pro_sup_r	wrist_flex_r	wrist_dev_r	arm_flex_l	arm_add_l	arm_rot_l	elbow_flex_l	pro_sup_l	wrist_flex_l	wrist_dev_l
1.28	-0.2795233987023386	-33.73532270323273	-87.80726673157237	0	0.9399999998679526	0	45.97367319492326	-9.799190711131986	0	60.48534664092197	1.055668448094181	-4.844340274061905	0	0	45.97367319492326	-9.799190711131986	0	60.48534664092197	1.055668448094181	-4.844340274061905	0	0	-59.66486916929414	-23.90377413728589	36.04047511546867	128.7051205794412	-2.264796769385131	11.81924554084173	14.36237017133442	0.740977763269295	0	0	0	-12.45008802066074	0	89.3402182955038	0.740977763269295	0	0
1.29	-0.2806180653457086	-33.666208436651	-87.81460605877588	0	0.9399999998679526	0	45.97474412158262	-9.798796444711526	0	60.48592682010622	1.055678574131197	-4.844013573501288	0	0	45.97474412158262	-9.798796444711526	0	60.48592682010622	1.055678574131197	-4.844013573501288	0	0	-59.62866208411316	-23.8809369618378	35.96211949519053	128.7010046152805	-2.947780034011827	11.46886551067254	11.67810185932295	0.7416318360224714	0	0	0	-12.44824342885047	0	89.33963604560448	0.7416318360224714	0	0
1.3	-0.3895249838530715	-33.53541591754946	-88.03648356238057	0	0.9399999998679526	0	45.97439833529414	-9.799046310059699	0	60.48579181929908	1.05567621792262	-4.844266344290669	0	0	45.97439833529414	-9.799046310059699	0	60.48579181929908	1.05567621792262	-4.844266344290669	0	0	-59.51049918558569	-23.95754815744299	36.08996157953263	128.9058000982585	-3.67685236651723	10.95543479032561	9.304978294735903	0.7414489175661316	0	0	0	-12.448706443134	0	89.33979887657927	0.7414489175661316	0	0
1.31	-0.4557710419813207	-33.34902459386147	-88.19128465869267	0	0.9399999998679526	0	45.97403437027484	-9.799308869794361	0	60.48564964667499	1.055673736542223	-4.84453180079216	0	0	45.97403437027484	-9.799308869794361	0	60.48564964667499	1.055673736542223	-4.84453180079216	0	0	-59.29975736927168	-24.01469351587498	36.14558235704216	129.2601715905093	-3.696818303997035	10.81479734917421	7.508298398841469	0.7412563260538113	0	0	0	-12.44919404464379	0	89.33997031835162	0.7412563260538113	0	0
1.32	-0.5333087170083942	-33.15527240418224	-88.36761198235895	0	0.9399999998679526	0	45.97368118640001	-9.799563386540546	0	60.48551168784715	1.055671328706445	-4.844789003522214	0	0	45.97368118640001	-9.799563386540546	0	60.48551168784715	1.055671328706445	-4.844789003522214	0	0	-59.23899965345467	-24.03073238209215	36.09325678540567	129.8783328744181	-3.091396253746681	10.96305837929831	5.072518189701487	0.7410694229991069	0	0	0	-12.44966725946568	0	89.34013669635453	0.7410694229991069	0	0
1.33	-0.6116389262548956	-32.98168414603361	-88.56187247618686	0	0.9399999998679526	0	45.97322797586068	-9.799890258308393	0	60.48533483438609	1.055668242031256	-4.845119337941078	0	0	45.97322797586068	-9.799890258308393	0	60.48533483438609	1.055668242031256	-4.845119337941078	0	0	-59.15000766341235	-24.02577986449561	35.93003448287858	130.5041572860982	-2.039417734971232	11.3152658320334	2.625995633531556	0.7408296634894681	0	0	0	-12.45027413321139	0	89.34035012629423	0.7408296634894681	0	0
1.34	-0.7601556521841523	-32.79156933684137	-88.92401535581767	0	0.9399999998679526	0	45.97289040962429	-9.80013329095957	0	60.48520303677562	1.055665941729007	-4.845364791093693	0	0	45.97289040962429	-9.80013329095957	0	60.48520303677562	1.055665941729007	-4.845364791093693	0	0	-58.87186723621262	-24.12739998425798	35.98474117668002	130.5472777779067	-1.55643275978754	11.53600165323494	0.9498303065829721	0.7406510275703945	0	0	0	-12.45072639151735	0	89.34050914503069	0.7406510275703945	0	0
1.35	-0.910822937301891	-32.61988584794498	-89.28729955476665	0	0.9399999998679526	0	45.97272023809583	-9.800253821716375	0	60.485135756769	1.055664767471371	-4.845486118672305	0	0	45.97272023809583	-9.800253821716375	0	60.485135756769	1.055664767471371	-4.845486118672305	0	0	-58.60728723158361	-24.18176497462682	35.92726401493898	130.3676045719256	-1.094573597170016	11.57824445593954	0.6409096590739636	0.7405605310388061	0	0	0	-12.45095645607394	0	89.3405897035707	0.7405605310388061	0	0
1.36	-1.105097180814341	-32.40657544060833	-89.65299010675253	0	0.9399999998679526	0	45.97226754114409	-9.800577400049379	0	60.48495813357133	1.055661667361744	-4.84581237212533	0	0	45.97226754114409	-9.800577400049379	0	60.48495813357133	1.055661667361744	-4.84581237212533	0	0	-58.11706566779812	-24.27188627824986	36.1249780088625	130.1202525452495	-0.9198730407373152	11.56594552761013	0.4185656417551675	0.7403204840535275	0	0	0	-12.45156521708715	0	89.34080338945081	0.7403204840535275	0	0
1.37	-1.240160908935635	-32.2279342607921	-89.98981029726723	0	0.9399999998679526	0	45.97199950515525	-9.800768514169594	0	60.4848528232808	1.055659829350438	-4.846004935024038	0	0	45.97199950515525	-9.800768514169594	0	60.4848528232808	1.055659829350438	-4.846004935024038	0	0	-57.84784420665977	-24.38363469312948	36.22594364788196	130.096765270201	-0.7710881134453584	11.43291759865165	0.2513935955531901	0.7401782699276495	0	0	0	-12.45192604757459	0	89.34092998613309	0.7401782699276495	0	0
